PathFileType	4	(X/Y/Z)	C:/Users/beibeiliu/ov580/test_trc\sequence.16_training_dense_left.trc
DataRate	CameraRate	NumFrames	NumMarkers	Units	OrigDataRate	OrigDataStartFrame	OrigNumFrames
120	120	20	19	mm	120	29	56
Frame#	Time	ThumbCMC			ThumbMCP			ThumbIP			ThumbTip			IndexMCP			IndexPIP			IndexTip			MiddleMCP			MiddlePIP			MiddleTip			RingMCP			RingPIP			RingTip			PinkyMCP			PinkyPIP			PinkyTip			BackHand1			BackHand2			BackHand3	
		X0	Y0	Z0	X1	Y1	Z1	X2	Y2	Z2	X3	Y3	Z3	X4	Y4	Z4	X5	Y5	Z5	X6	Y6	Z6	X7	Y7	Z7	X8	Y8	Z8	X9	Y9	Z9	X10	Y10	Z10	X11	Y11	Z11	X12	Y12	Z12	X13	Y13	Z13	X14	Y14	Z14	X15	Y15	Z15	X16	Y16	Z16	X17	Y17	Z17	X18	Y18	Z18	
28	0.233333	-200.977	36.3706	116.513	-177.678	43.9346	90.7382	-165.35	44.5772	67.3223	-155.344	20.6663	49.322	-218.421	6.86969	52.1659	-216.427	7.67545	23.9639	-213.979	5.50703	1.94647	-188.765	1.53452	49.6929	-160.978	17.1332	53.724	-167.896	24.1012	87.3459	-170.481	-8.11752	58.152	-153.949	12.7308	69.5731	-163.591	13.8845	103.641	-162.764	-20.9848	70.8421	-147.149	2.99039	86.58	-164.753	7.43234	108.162	-202.821	-27.885	106.739	-206.743	-23.409	134.485	-221.127	0.165284	118.728	
29	0.241667	-187.939	44.5548	121.871	-164.914	47.7296	95.3805	-158.499	40.6404	66.6826	-158.56	20.0497	47.1523	-220.131	36.4633	56.6534	-219.141	38.1722	26.7272	-217.716	35.3185	6.2088	-196.469	17.0273	49.572	-164.09	22.8292	52.6588	-167.294	23.9844	87.9066	-185.117	-0.594317	57.827	-156.327	8.56955	69.3478	-168.566	13.8523	102.222	-180.383	-15.5554	67.4454	-156.733	-2.90145	80.5984	-173.522	3.97567	110.944	-219.284	-8.07052	102.104	-217.197	-9.47012	132.217	-221.806	24.1063	120.733	
30	0.25	-171.236	42.2906	121.976	-149.296	36.2934	95.0397	-141.71	31.407	66.3074	-150.241	14.9059	49.2128	-202.162	47.4848	58.8816	-200.999	51.7163	28.9546	-201.626	50.3729	4.20568	-190.04	23.0002	51.065	-159.296	13.8082	51.9781	-158.759	18.5296	86.9196	-182.482	2.68129	57.148	-156.526	-0.351636	69.4769	-164.079	8.25673	101.916	-185.589	-11.4737	66.9823	-161.118	-12.7258	82.3172	-175.816	0.101387	113.162	-219.57	7.21743	103.517	-219.301	3.80921	132.909	-208.326	39.2179	118.518	
31	0.258333	-149.781	33.0386	127.03	-130.657	19.4077	99.8426	-129.599	9.01088	71.4739	-143.203	-3.91352	55.1631	-172.974	48.525	57.3116	-172.499	43.5568	31.2922	-172.855	43.2896	4.43384	-172.308	16.8603	53.3287	-148.22	-2.18315	55.7654	-151.087	3.50315	92.7154	-176.446	-3.32703	61.4707	-150.943	-13.8454	75.2911	-160.449	-5.19919	106.866	-183.826	-13.6497	71.9635	-161.25	-20.8644	85.6627	-170.132	-3.11957	114.397	-208.797	15.3854	103.349	-208.041	14.4059	136.674	-188.547	42.0321	119.479	
32	0.266667	-134.807	19.1936	129.526	-116.126	-2.4414	109.141	-115.523	-14.6581	80.774	-128.807	-27.5236	60.7372	-150.309	30.0663	55.2656	-144.386	25.2206	33.5254	-144.601	18.1778	8.32151	-156.806	1.80801	57.3968	-137.377	-24.0858	65.8314	-137.302	-13.2586	99.7277	-164.83	-14.3109	67.9074	-145.882	-31.863	84.8791	-149.26	-10.979	113.028	-175.777	-25.4725	77.2809	-155.926	-32.574	95.6806	-160.171	-12.0717	118.102	-192.384	15.9804	104.802	-194.934	20.8975	135.08	-170.943	34.9965	119.538	
33	0.275	-121.866	12.6176	132.26	-104.602	-13.6906	118.442	-99.0353	-29.3254	92.9296	-113.93	-43.0842	73.7352	-129.684	15.9152	58.1534	-119.938	8.47918	40.6667	-115.056	-3.80706	14.1514	-136.962	-13.7663	62.3302	-120.35	-35.034	75.3829	-128.548	-22.5092	110.587	-149.047	-27.4814	74.0962	-132.377	-41.0584	95.5238	-141.411	-21.2736	121.398	-161.303	-34.1702	83.3194	-146.721	-42.2462	108.593	-151.596	-20.1565	124.692	-182.239	9.56081	102.669	-187.764	13.9166	135.29	-159.063	29.4078	122.474	
34	0.283333	-118.212	16.5269	139.105	-96.5157	-8.28464	123.125	-87.4047	-25.4806	101.783	-96.3876	-40.8509	82.6931	-115.224	18.1406	68.024	-102.357	6.67683	45.4749	-95.6432	-7.11767	23.3935	-121.581	-16.8376	69.4216	-103.243	-33.3495	86.7073	-114.559	-16.0818	119.532	-135.136	-28.9207	81.2462	-117.041	-40.3759	105.588	-132.439	-16.6368	128.965	-146.657	-36.8343	89.2396	-130.107	-41.0106	115.835	-142.022	-18.3878	134.869	-172.24	6.83843	103.239	-180.636	13.1401	136.74	-149.433	30.8723	120.856	
35	0.291667	-122.701	30.2802	142.089	-91.4176	14.4015	128.74	-81.8113	-0.994466	106.278	-82.3252	-19.589	86.1147	-115.507	25.9591	66.7817	-99.6112	24.593	50.7687	-85.421	13.1702	26.8391	-112.633	2.70573	72.9934	-89.7999	-13.467	91.431	-107.407	-3.20022	119.91	-118.694	-16.8195	83.3127	-102.081	-22.6954	110.434	-118.738	-6.82831	130.294	-129.906	-29.1633	92.1524	-115.531	-29.3256	118.504	-131.703	-7.58739	134.702	-165.73	2.11044	101.575	-177.328	9.09462	132.177	-155.676	33.8052	122.438	
36	0.3	-133.379	45.0504	134.857	-99.5549	41.9918	126.874	-80.6338	32.6753	102.926	-80.8768	12.8433	87.937	-127.071	46.1493	66.0098	-106.905	41.8094	43.4258	-91.1311	41.3619	23.412	-114.789	19.2824	69.7075	-86.3276	13.602	87.2742	-110.061	16.884	118.002	-109.665	-1.34873	81.0432	-93.2859	1.91003	104.037	-117.283	7.89411	128.957	-120.155	-14.502	89.1791	-104.954	-5.63161	116.002	-128.228	3.64463	132.222	-165.235	6.02541	99.4967	-177.155	5.31565	126.861	-166.932	33.6505	116.642	
37	0.308333	-151.623	51.9603	132.512	-118.184	56.7663	117.951	-96.8457	57.2581	100.328	-88.1827	35.2218	81.9306	-143.078	44.9876	58.0494	-126.299	52.569	37.1698	-107.784	49.7388	16.1014	-124.068	31.2158	64.6663	-95.8326	33.9624	81.986	-114.657	35.1651	111.357	-112.919	13.0249	76.7263	-97.0541	19.6575	99.146	-120.862	22.5772	122.723	-112.335	-2.70061	87.4276	-100.9	6.01916	111.827	-131.66	16.2279	128.783	-164.338	0.78746	98.0395	-179.865	-1.13653	129.985	-176.671	29.0919	109.904	
38	0.316667	-168.914	44.1787	121.694	-139.622	59.535	107.569	-119.322	63.3806	90.0372	-104.484	44.4421	74.2535	-161.598	33.9038	50.5228	-147.563	39.4755	28.1386	-135.63	46.0412	8.38052	-138.428	23.2331	57.576	-111.915	36.8388	71.4574	-129.574	35.1631	102.77	-122.875	12.5577	70.3706	-108.741	27.7611	90.5617	-133.488	29.1777	116.033	-117.901	-2.6408	84.5235	-108.609	15.5414	105.166	-135.205	18.3307	123.621	-168.272	-13.1565	96.2046	-180.12	-17.5694	130.045	-189.15	12.7647	111.986	
39	0.325	-184.25	33.6318	117.255	-158.36	50.9342	101.462	-140.751	57.313	81.9805	-122.496	39.3331	66.6633	-178.27	17.2681	51.2226	-169.248	25.3598	26.5496	-156.13	28.9499	5.23989	-148.565	11.7389	54.5591	-130.078	35.5769	65.5617	-144.005	35.6939	97.4439	-137.335	4.04208	68.657	-122.776	28.3349	87.389	-145.554	26.8169	110.855	-126.444	-4.67136	80.5763	-122.376	17.558	101.269	-148.119	14.5211	117.212	-171.468	-23.4899	98.3956	-183.737	-25.5237	132.38	-198.166	-3.88355	110.907	
40	0.333333	-198.065	30.6358	114.498	-175.846	48.0493	99.885	-159.876	50.9214	77.9216	-140.596	37.1449	60.5568	-193.818	9.66762	43.7914	-187.575	14.9986	20.5659	-178.437	16.7904	-1.03378	-166.796	6.60786	51.5391	-143.695	29.6731	57.8596	-154.468	29.9271	93.3026	-146.699	-2.21433	65.1005	-135.969	24.7703	78.6732	-154.593	22.9224	105.707	-140.353	-9.22681	75.5332	-130.836	15.0877	92.12	-153.414	11.4037	113.871	-177.358	-31.7954	98.9975	-185.588	-32.1244	129.409	-207.767	-10.4239	110.974	
41	0.341667	-207.795	27.9706	116.591	-186.725	44.7626	94.9748	-172.866	49.6921	70.1408	-157.594	38.5451	54.438	-208.646	3.6868	44.5828	-200.907	6.01388	19.8887	-194.721	6.16978	-0.62582	-174.931	3.18754	48.0037	-157.442	30.1445	56.738	-165.131	29.8757	90.5399	-155.832	-0.177154	59.2549	-147.367	23.3353	74.4503	-164.588	18.9055	105.386	-146.113	-11.3621	70.8602	-139.555	13.283	87.4405	-161.859	8.34994	111.896	-187.73	-31.7537	98.4801	-193.524	-34.0024	129.936	-211.793	-13.0973	110.353	
42	0.35	-212.1	28.7075	116.844	-194.245	46.1866	90.6256	-183.038	49.1849	69.7587	-167.652	39.8744	49.2691	-221.52	4.15093	47.6008	-216.357	4.97548	22.539	-213.295	4.96381	-3.30799	-189.988	2.55864	49.2617	-165.514	26.7159	52.4857	-170.516	28.0397	88.0499	-168.323	-3.7305	58.274	-157.525	24.6678	71.2169	-168.287	19.3656	101.111	-156.152	-9.84149	66.8069	-148.707	12.1976	79.5832	-168.754	8.53589	109.561	-195.94	-32.2731	97.6597	-197.004	-29.0898	133.763	-221.446	-8.42709	112.249	
43	0.358333	-211.87	32.6915	119.82	-193.718	47.1016	91.9806	-183.592	51.1063	67.2927	-171.286	37.2569	46.2575	-226.705	6.72708	53.4359	-225.801	8.67386	23.737	-224.27	7.78321	-0.931502	-196.928	2.38662	49.9295	-170.957	26.8128	52.7265	-176.262	29.0248	88.4074	-180.09	-0.750019	57.2959	-161.666	21.3109	67.8339	-176.577	22.5013	100.397	-164.934	-12.0607	65.8042	-154.86	12.851	81.5429	-171.691	10.6324	108.763	-204.953	-28.4431	99.6607	-202.448	-26.5744	135.676	-225.079	-2.40486	118.844	
44	0.366667	-203.632	41.2708	120.458	-182.667	47.1837	94.3748	-173.814	46.9259	67.2382	-168.212	29.4609	49.7882	-230.18	20.8713	51.2429	-231.174	25.8924	31.0648	-230.654	25.3777	1.97285	-200.167	12.9264	47.3775	-174.148	28.3854	50.2117	-176.187	29.1656	88.895	-185.113	1.06927	54.8031	-162.837	16.1256	65.6905	-172.98	16.4361	101.946	-174.879	-15.4317	64.9169	-159.094	6.64058	78.8579	-173.898	7.42086	108.282	-215.331	-20.0524	99.4526	-211.942	-20.9844	135.556	-226.033	5.76609	116.474	
45	0.375	-185.781	38.1609	123.957	-164.562	39.8944	94.584	-155.644	37.252	67.8421	-155.766	19.4491	49.5564	-218.639	36.0889	57.384	-216.959	41.5444	28.7004	-216.133	36.2282	4.03461	-195.397	17.7342	50.5248	-163.582	19.2578	50.9337	-164.813	21.8704	88.4613	-184.501	-1.61639	58.2341	-156.802	7.3571	66.6681	-167.359	10.5448	102.103	-180.126	-13.9071	67.3539	-156.589	-5.38257	80.9825	-171.046	4.07375	106.736	-219.223	-12.1149	103.18	-214.653	-12.9184	131.266	-220.379	19.8945	117.194	
46	0.383333	-164.917	35.9876	123.762	-140.424	30.6734	97.8016	-131.978	24.6172	69.2882	-139.302	5.18089	49.0714	-193.782	42.1727	51.4675	-187.202	46.9639	28.4703	-186.735	43.0451	5.79024	-177.708	19.3967	50.3502	-145.796	11.801	55.8236	-151.318	11.2521	91.2352	-171.506	-0.315915	58.4166	-147.307	-4.62794	71.673	-157.306	3.47608	105.027	-177.124	-20.1571	68.5054	-152.904	-12.2144	85.6449	-167.243	-4.8977	114.737	-211.536	2.98399	100.559	-213.54	-3.08691	130.42	-202.9	32.8642	119.992	
47	0.391667	-140.308	28.1737	125.233	-121.46	11.6831	101.586	-111.347	-0.0688208	76.0512	-127.887	-16.0753	58.2118	-160.014	38.138	52.4888	-155.536	33.0417	28.0482	-154.758	27.4347	7.01414	-156.662	7.26148	52.2493	-131.286	-9.00862	59.4022	-137.841	-3.60479	95.7853	-158.555	-10.3175	61.9682	-138.009	-21.2826	78.5376	-147.741	-7.51046	108.849	-172.184	-27.7283	72.167	-149.395	-32.1653	92.1968	-158.489	-9.83611	114.832	-199.643	4.75789	102.639	-202.875	6.53053	134.755	-182.012	32.8532	117.747	
